<mxfile host="app.diagrams.net" modified="2023-10-05T19:27:39.418Z" agent="Mozilla/5.0 (Macintosh; Intel Mac OS X 10_15_7) AppleWebKit/537.36 (KHTML, like Gecko) Chrome/117.0.0.0 Safari/537.36" version="22.0.3" etag="Wm4ue4rZNV2_V2FRjXHC" type="github">
  <diagram name="Page-1" id="KWnVXeVzuNGroSRr7JK8">
    <mxGraphModel>
      <root>
        <mxCell id="0" />
        <mxCell id="1" parent="0" />
      </root>
    </mxGraphModel>
  </diagram>
</mxfile>
